<svg version="1.1" viewBox="0.0 0.0 624.0 240.0" fill="none" stroke="none" stroke-linecap="square" stroke-miterlimit="10" xmlns:xlink="http://www.w3.org/1999/xlink" xmlns="http://www.w3.org/2000/svg"><clipPath id="p.0"><path d="m0 0l624.0 0l0 240.0l-624.0 0l0 -240.0z" clip-rule="nonzero"/></clipPath><g clip-path="url(#p.0)"><path fill="#000000" fill-opacity="0.0" d="m0 0l624.0 0l0 240.0l-624.0 0z" fill-rule="evenodd"/><path fill="#000000" fill-opacity="0.0" d="m-7.162704 147.2336l576.0 0l0 58.173233l-576.0 0z" fill-rule="evenodd"/><path fill="#666666" d="m14.024796 164.64958q3.796875 0 6.34375 1.96875q2.5625 1.96875 3.0625 5.453125l-3.03125 0q-0.5 -2.34375 -2.203125 -3.59375q-1.6875 -1.265625 -4.203125 -1.265625q-3.625 0 -5.6875 2.5625q-2.0468745 2.5625 -2.0468745 6.6875q0 4.375 2.0156245 6.96875q2.015625 2.59375 5.75 2.59375q2.796875 0 4.578125 -1.765625q1.796875 -1.78125 2.015625 -4.828125l3.046875 0q-0.5 4.4375 -3.09375 6.796875q-2.578125 2.359375 -6.796875 2.359375q-4.90625 0 -7.7343745 -3.25q-2.8281252 -3.25 -2.8281252 -8.65625q0 -5.328125 2.9218752 -8.671875q2.9218745 -3.359375 7.8906245 -3.359375zm20.109375 6.46875q3.75 0 5.890625 2.421875q2.140625 2.421875 2.140625 6.25q0 3.859375 -2.1875 6.25q-2.1875 2.390625 -5.84375 2.390625q-3.59375 0 -5.8125 -2.34375q-2.21875 -2.359375 -2.21875 -6.296875q0 -3.9375 2.171875 -6.296875q2.171875 -2.375 5.859375 -2.375zm-5.15625 8.671875q0 2.84375 1.453125 4.546875q1.453125 1.6875 3.703125 1.6875q2.234375 0 3.6875 -1.703125q1.46875 -1.703125 1.46875 -4.53125q0 -2.828125 -1.453125 -4.546875q-1.453125 -1.734375 -3.734375 -1.734375q-2.1875 0 -3.65625 1.703125q-1.46875 1.6875 -1.46875 4.578125zm24.625 -8.6875q0.09375 0 0.171875 0q0.078125 0 0.203125 0.015625l0 2.875q-3.0625 0 -4.53125 1.625q-1.453125 1.625 -1.453125 5.015625l0 7.40625l-2.71875 0l0 -16.546875l2.5625 0l0 3.484375l0.0625 0q0.953125 -1.96875 2.34375 -2.921875q1.40625 -0.953125 3.359375 -0.953125zm10.4375 0.015625q2.984375 0 4.328125 1.53125q1.359375 1.53125 1.359375 4.375l0 11.015625l-2.71875 0l0 -11.296875q0 -1.40625 -0.90625 -2.3125q-0.890625 -0.921875 -2.484375 -0.921875q-2.296875 0 -3.59375 1.421875q-1.28125 1.40625 -1.28125 3.65625l0 9.453125l-2.71875 0l0 -16.546875l2.5625 0l0 2.625l0.0625 0q0.90625 -1.546875 2.21875 -2.265625q1.328125 -0.734375 3.171875 -0.734375zm16.65625 0q3.5625 0 5.53125 2.5625q1.96875 2.5625 1.96875 6.578125l0 0.328125l-12.390625 0l0 0.203125q0 2.359375 1.375 3.796875q1.375 1.4375 3.78125 1.4375q1.8125 0 2.875 -0.84375q1.078125 -0.84375 1.40625 -2.390625l2.6875 0q-0.546875 2.75 -2.40625 4.203125q-1.859375 1.4375 -4.65625 1.4375q-2.609375 0 -4.421875 -1.171875q-1.796875 -1.1875 -2.65625 -3.28125q-0.859375 -2.109375 -0.859375 -4.3125q0 -3.65625 2.203125 -6.09375q2.203125 -2.453125 5.5625 -2.453125zm-4.890625 7.0625l9.5 0q-0.125 -2.015625 -1.46875 -3.34375q-1.328125 -1.328125 -3.328125 -1.328125q-1.875 0 -3.203125 1.265625q-1.328125 1.265625 -1.5 3.40625zm18.078125 -12.984375l0 22.84375l-2.71875 0l0 -22.84375l2.71875 0zm7.109375 0l0 22.84375l-2.71875 0l0 -22.84375l2.71875 0zm23.265625 -0.546875q3.796875 0 6.34375 1.96875q2.5625 1.96875 3.0625 5.453125l-3.03125 0q-0.5 -2.34375 -2.203125 -3.59375q-1.6875 -1.265625 -4.203125 -1.265625q-3.625 0 -5.6875 2.5625q-2.046875 2.5625 -2.046875 6.6875q0 4.375 2.015625 6.96875q2.015625 2.59375 5.75 2.59375q2.796875 0 4.578125 -1.765625q1.796875 -1.78125 2.015625 -4.828125l3.046875 0q-0.5 4.4375 -3.09375 6.796875q-2.578125 2.359375 -6.796875 2.359375q-4.90625 0 -7.734375 -3.25q-2.828125 -3.25 -2.828125 -8.65625q0 -5.328125 2.921875 -8.671875q2.921875 -3.359375 7.890625 -3.359375zm20.109375 6.46875q3.75 0 5.890625 2.421875q2.140625 2.421875 2.140625 6.25q0 3.859375 -2.1875 6.25q-2.1875 2.390625 -5.84375 2.390625q-3.59375 0 -5.8125 -2.34375q-2.21875 -2.359375 -2.21875 -6.296875q0 -3.9375 2.171875 -6.296875q2.171875 -2.375 5.859375 -2.375zm-5.15625 8.671875q0 2.84375 1.453125 4.546875q1.453125 1.6875 3.703125 1.6875q2.234375 0 3.6875 -1.703125q1.46875 -1.703125 1.46875 -4.53125q0 -2.828125 -1.453125 -4.546875q-1.453125 -1.734375 -3.734375 -1.734375q-2.1875 0 -3.65625 1.703125q-1.46875 1.6875 -1.46875 4.578125zm24.40625 -8.671875q2.984375 0 4.328125 1.53125q1.359375 1.53125 1.359375 4.375l0 11.015625l-2.71875 0l0 -11.296875q0 -1.40625 -0.90625 -2.3125q-0.890625 -0.921875 -2.484375 -0.921875q-2.296875 0 -3.59375 1.421875q-1.28125 1.40625 -1.28125 3.65625l0 9.453125l-2.71875 0l0 -16.546875l2.5625 0l0 2.625l0.0625 0q0.90625 -1.546875 2.21875 -2.265625q1.328125 -0.734375 3.171875 -0.734375zm11.21875 0.375l4.640625 13.796875l0.0625 0l4.515625 -13.796875l2.84375 0l-6.046875 16.546875l-2.90625 0l-6.140625 -16.546875l3.03125 0zm21.4375 -0.375q3.5625 0 5.53125 2.5625q1.96875 2.5625 1.96875 6.578125l0 0.328125l-12.390625 0l0 0.203125q0 2.359375 1.375 3.796875q1.375 1.4375 3.78125 1.4375q1.8125 0 2.875 -0.84375q1.078125 -0.84375 1.40625 -2.390625l2.6875 0q-0.546875 2.75 -2.40625 4.203125q-1.859375 1.4375 -4.65625 1.4375q-2.609375 0 -4.421875 -1.171875q-1.796875 -1.1875 -2.65625 -3.28125q-0.859375 -2.109375 -0.859375 -4.3125q0 -3.65625 2.203125 -6.09375q2.203125 -2.453125 5.5625 -2.453125zm-4.890625 7.0625l9.5 0q-0.125 -2.015625 -1.46875 -3.34375q-1.328125 -1.328125 -3.328125 -1.328125q-1.875 0 -3.203125 1.265625q-1.328125 1.265625 -1.5 3.40625zm23.4375 -7.078125q0.09375 0 0.171875 0q0.078125 0 0.203125 0.015625l0 2.875q-3.0625 0 -4.53125 1.625q-1.453125 1.625 -1.453125 5.015625l0 7.40625l-2.71875 0l0 -16.546875l2.5625 0l0 3.484375l0.0625 0q0.953125 -1.96875 2.34375 -2.921875q1.40625 -0.953125 3.359375 -0.953125zm7.921875 0.015625q3.34375 0 4.96875 1.296875q1.625 1.296875 1.78125 3.875l-2.71875 0l0 -0.03125q-0.109375 -1.3125 -1.15625 -2.03125q-1.03125 -0.71875 -2.671875 -0.71875q-1.640625 0 -2.59375 0.5625q-0.9375 0.546875 -0.9375 1.546875q0 0.90625 0.828125 1.484375q0.84375 0.578125 2.53125 0.9375l2.5625 0.578125q2.40625 0.53125 3.65625 1.640625q1.25 1.09375 1.25 2.953125q0 2.4375 -1.890625 3.828125q-1.890625 1.390625 -5.15625 1.390625q-3.171875 0 -5.03125 -1.421875q-1.859375 -1.421875 -1.984375 -4.1875l2.734375 0q0.046875 1.546875 1.21875 2.375q1.171875 0.828125 3.21875 0.828125q1.96875 0 2.984375 -0.625q1.015625 -0.625 1.015625 -1.84375q0 -1.109375 -1.015625 -1.75q-1.0 -0.65625 -4.125 -1.28125q-3.125 -0.609375 -4.40625 -1.71875q-1.265625 -1.125 -1.265625 -2.984375q0 -2.171875 1.765625 -3.4375q1.765625 -1.265625 4.4375 -1.265625zm17.265625 0q3.375 0 4.78125 1.203125q1.421875 1.203125 1.421875 3.21875q0 8.609375 0 9.546875q0 0.9375 0.859375 0.9375q0.1875 0 0.40625 -0.046875q0.21875 -0.046875 0.421875 -0.109375l0 2.109375q-0.375 0.21875 -0.875 0.328125q-0.484375 0.125 -1.0625 0.125q-1.125 0 -1.71875 -0.625q-0.59375 -0.640625 -0.59375 -1.9375q-1.078125 1.28125 -2.546875 1.921875q-1.46875 0.640625 -3.28125 0.640625q-2.5625 0 -4.015625 -1.203125q-1.453125 -1.21875 -1.453125 -3.4375q0 -2.234375 1.421875 -3.53125q1.421875 -1.3125 6.6875 -1.96875q1.78125 -0.234375 2.40625 -0.6875q0.640625 -0.453125 0.640625 -1.359375q0 -1.375 -0.890625 -2.046875q-0.875 -0.6875 -2.796875 -0.6875q-2.015625 0 -3.03125 0.765625q-1.0 0.765625 -1.078125 2.375l-2.71875 0q0.125 -2.75 1.9375 -4.140625q1.8125 -1.390625 5.078125 -1.390625zm-4.78125 12.46875q0 1.15625 0.84375 1.796875q0.84375 0.640625 2.359375 0.640625q2.296875 0 3.671875 -1.140625q1.375 -1.140625 1.375 -2.546875l0 -2.84375q-0.6875 0.484375 -1.78125 0.65625q-1.09375 0.171875 -2.90625 0.421875q-1.8125 0.265625 -2.6875 0.984375q-0.875 0.71875 -0.875 2.03125zm18.984375 -17.046875l0 4.953125l3.2968903 0l0 2.40625l-3.2968903 0l0 10.359375q0 1.234375 0.8125 1.3125q0.828125 0.0625 1.7187653 0.0625l0.765625 0l0 2.40625l-2.2500153 0q-2.234375 0 -3.0 -0.796875q-0.765625 -0.796875 -0.765625 -2.671875l0 -10.671875l-2.828125 0l0 -2.40625l2.828125 0l0 -4.953125l2.71875 0zm9.17189 -1.34375l0 3.328125l-2.71875 0l0 -3.328125l2.71875 0zm0 6.296875l0 16.546875l-2.71875 0l0 -16.546875l2.71875 0zm11.375 -0.375q3.75 0 5.890625 2.421875q2.140625 2.421875 2.140625 6.25q0 3.859375 -2.1875 6.25q-2.1875 2.390625 -5.84375 2.390625q-3.59375 0 -5.8125 -2.34375q-2.21875 -2.359375 -2.21875 -6.296875q0 -3.9375 2.171875 -6.296875q2.171875 -2.375 5.859375 -2.375zm-5.15625 8.671875q0 2.84375 1.453125 4.546875q1.453125 1.6875 3.703125 1.6875q2.234375 0 3.6875 -1.703125q1.46875 -1.703125 1.46875 -4.53125q0 -2.828125 -1.453125 -4.546875q-1.453125 -1.734375 -3.734375 -1.734375q-2.1875 0 -3.65625 1.703125q-1.46875 1.6875 -1.46875 4.578125zm24.40625 -8.671875q2.984375 0 4.328125 1.53125q1.359375 1.53125 1.359375 4.375l0 11.015625l-2.71875 0l0 -11.296875q0 -1.40625 -0.90625 -2.3125q-0.890625 -0.921875 -2.484375 -0.921875q-2.296875 0 -3.59375 1.421875q-1.28125 1.40625 -1.28125 3.65625l0 9.453125l-2.71875 0l0 -16.546875l2.5625 0l0 2.625l0.0625 0q0.90625 -1.546875 2.21875 -2.265625q1.328125 -0.734375 3.171875 -0.734375zm16.546875 0q3.375 0 4.78125 1.203125q1.421875 1.203125 1.421875 3.21875q0 8.609375 0 9.546875q0 0.9375 0.859375 0.9375q0.1875 0 0.40625 -0.046875q0.21875 -0.046875 0.421875 -0.109375l0 2.109375q-0.375 0.21875 -0.875 0.328125q-0.484375 0.125 -1.0625 0.125q-1.125 0 -1.71875 -0.625q-0.59375 -0.640625 -0.59375 -1.9375q-1.078125 1.28125 -2.546875 1.921875q-1.46875 0.640625 -3.28125 0.640625q-2.5625 0 -4.015625 -1.203125q-1.453125 -1.21875 -1.453125 -3.4375q0 -2.234375 1.421875 -3.53125q1.421875 -1.3125 6.6875 -1.96875q1.78125 -0.234375 2.40625 -0.6875q0.640625 -0.453125 0.640625 -1.359375q0 -1.375 -0.890625 -2.046875q-0.875 -0.6875 -2.796875 -0.6875q-2.015625 0 -3.03125 0.765625q-1.0 0.765625 -1.078125 2.375l-2.71875 0q0.125 -2.75 1.9375 -4.140625q1.8125 -1.390625 5.078125 -1.390625zm-4.78125 12.46875q0 1.15625 0.84375 1.796875q0.84375 0.640625 2.359375 0.640625q2.296875 0 3.671875 -1.140625q1.375 -1.140625 1.375 -2.546875l0 -2.84375q-0.6875 0.484375 -1.78125 0.65625q-1.09375 0.171875 -2.90625 0.421875q-1.8125 0.265625 -2.6875 0.984375q-0.875 0.71875 -0.875 2.03125zm18.078125 -18.390625l0 22.84375l-2.71875 0l0 -22.84375l2.71875 0zm23.140625 0l8.921875 22.84375l-3.359375 0l-2.484375 -6.875l-9.671875 0l-2.5625 6.875l-3.125 0l8.921875 -22.84375l3.359375 0zm-1.765625 2.75l-3.859375 10.65625l7.734375 0l-3.796875 -10.65625l-0.078125 0zm20.5 3.171875q2.984375 0 4.328125 1.53125q1.359375 1.53125 1.359375 4.375l0 11.015625l-2.71875 0l0 -11.296875q0 -1.40625 -0.90625 -2.3125q-0.890625 -0.921875 -2.484375 -0.921875q-2.296875 0 -3.59375 1.421875q-1.28125 1.40625 -1.28125 3.65625l0 9.453125l-2.71875 0l0 -16.546875l2.5625 0l0 2.625l0.0625 0q0.90625 -1.546875 2.21875 -2.265625q1.328125 -0.734375 3.171875 -0.734375zm16.546875 0q3.375 0 4.78125 1.203125q1.421875 1.203125 1.421875 3.21875q0 8.609375 0 9.546875q0 0.9375 0.859375 0.9375q0.1875 0 0.40625 -0.046875q0.21875 -0.046875 0.421875 -0.109375l0 2.109375q-0.375 0.21875 -0.875 0.328125q-0.484375 0.125 -1.0625 0.125q-1.125 0 -1.71875 -0.625q-0.59375 -0.640625 -0.59375 -1.9375q-1.078125 1.28125 -2.546875 1.921875q-1.46875 0.640625 -3.28125 0.640625q-2.5625 0 -4.015625 -1.203125q-1.453125 -1.21875 -1.453125 -3.4375q0 -2.234375 1.421875 -3.53125q1.421875 -1.3125 6.6875 -1.96875q1.78125 -0.234375 2.40625 -0.6875q0.640625 -0.453125 0.640625 -1.359375q0 -1.375 -0.890625 -2.046875q-0.875 -0.6875 -2.796875 -0.6875q-2.015625 0 -3.03125 0.765625q-1.0 0.765625 -1.078125 2.375l-2.71875 0q0.125 -2.75 1.9375 -4.140625q1.8125 -1.390625 5.078125 -1.390625zm-4.78125 12.46875q0 1.15625 0.84375 1.796875q0.84375 0.640625 2.359375 0.640625q2.296875 0 3.671875 -1.140625q1.375 -1.140625 1.375 -2.546875l0 -2.84375q-0.6875 0.484375 -1.78125 0.65625q-1.09375 0.171875 -2.90625 0.421875q-1.8125 0.265625 -2.6875 0.984375q-0.875 0.71875 -0.875 2.03125zm18.078125 -18.390625l0 22.84375l-2.71875 0l0 -22.84375l2.71875 0zm5.515625 6.296875l4.828125 13.53125l0.0625 0l4.640625 -13.53125l2.890625 0l-7.03125 18.3125q-1.109375 2.859375 -2.140625 3.859375q-1.015625 1.0 -2.828125 1.0q-0.5 0 -0.96875 -0.0625q-0.46875 -0.0625 -0.921875 -0.21875l0 -2.5q0.390625 0.125 0.78125 0.25q0.40625 0.125 0.8125 0.125q1.65625 0 2.3125 -1.65625q0.65625 -1.65625 1.046875 -2.65625l-6.5625 -16.453125l3.078125 0zm20.21875 -0.375q3.34375 0 4.96875 1.296875q1.625 1.296875 1.78125 3.875l-2.71875 0l0 -0.03125q-0.109375 -1.3125 -1.15625 -2.03125q-1.03125 -0.71875 -2.671875 -0.71875q-1.640625 0 -2.59375 0.5625q-0.9375 0.546875 -0.9375 1.546875q0 0.90625 0.828125 1.484375q0.84375 0.578125 2.53125 0.9375l2.5625 0.578125q2.40625 0.53125 3.65625 1.640625q1.25 1.09375 1.25 2.953125q0 2.4375 -1.890625 3.828125q-1.890625 1.390625 -5.15625 1.390625q-3.171875 0 -5.03125 -1.421875q-1.859375 -1.421875 -1.984375 -4.1875l2.734375 0q0.046875 1.546875 1.21875 2.375q1.171875 0.828125 3.21875 0.828125q1.96875 0 2.984375 -0.625q1.015625 -0.625 1.015625 -1.84375q0 -1.109375 -1.015625 -1.75q-1.0 -0.65625 -4.125 -1.28125q-3.125 -0.609375 -4.40625 -1.71875q-1.265625 -1.125 -1.265625 -2.984375q0 -2.171875 1.765625 -3.4375q1.765625 -1.265625 4.4375 -1.265625zm13.375 -5.921875l0 3.328125l-2.71875 0l0 -3.328125l2.71875 0zm0 6.296875l0 16.546875l-2.71875 0l0 -16.546875l2.71875 0zm9.734375 -0.375q3.34375 0 4.96875 1.296875q1.625 1.296875 1.78125 3.875l-2.71875 0l0 -0.03125q-0.109375 -1.3125 -1.15625 -2.03125q-1.03125 -0.71875 -2.671875 -0.71875q-1.640625 0 -2.59375 0.5625q-0.9375 0.546875 -0.9375 1.546875q0 0.90625 0.828125 1.484375q0.84375 0.578125 2.53125 0.9375l2.5625 0.578125q2.40625 0.53125 3.65625 1.640625q1.25 1.09375 1.25 2.953125q0 2.4375 -1.890625 3.828125q-1.890625 1.390625 -5.15625 1.390625q-3.171875 0 -5.03125 -1.421875q-1.859375 -1.421875 -1.984375 -4.1875l2.734375 0q0.046875 1.546875 1.21875 2.375q1.171875 0.828125 3.21875 0.828125q1.96875 0 2.984375 -0.625q1.015625 -0.625 1.015625 -1.84375q0 -1.109375 -1.015625 -1.75q-1.0 -0.65625 -4.125 -1.28125q-3.125 -0.609375 -4.40625 -1.71875q-1.265625 -1.125 -1.265625 -2.984375q0 -2.171875 1.765625 -3.4375q1.765625 -1.265625 4.4375 -1.265625zm35.6875 -5.921875l0 2.5625l-7.625 0l0 20.28125l-3.03125 0l0 -20.28125l-7.625 0l0 -2.5625l18.28125 0zm9.21875 5.921875q3.75 0 5.890625 2.421875q2.140625 2.421875 2.140625 6.25q0 3.859375 -2.1875 6.25q-2.1875 2.390625 -5.84375 2.390625q-3.59375 0 -5.8125 -2.34375q-2.21875 -2.359375 -2.21875 -6.296875q0 -3.9375 2.171875 -6.296875q2.171875 -2.375 5.859375 -2.375zm-5.15625 8.671875q0 2.84375 1.453125 4.546875q1.453125 1.6875 3.703125 1.6875q2.234375 0 3.6875 -1.703125q1.46875 -1.703125 1.46875 -4.53125q0 -2.828125 -1.453125 -4.546875q-1.453125 -1.734375 -3.734375 -1.734375q-2.1875 0 -3.65625 1.703125q-1.46875 1.6875 -1.46875 4.578125zm23.53125 -8.671875q3.75 0 5.8905945 2.421875q2.140625 2.421875 2.140625 6.25q0 3.859375 -2.1875 6.25q-2.1874695 2.390625 -5.8437195 2.390625q-3.59375 0 -5.8125 -2.34375q-2.21875 -2.359375 -2.21875 -6.296875q0 -3.9375 2.171875 -6.296875q2.171875 -2.375 5.859375 -2.375zm-5.15625 8.671875q0 2.84375 1.453125 4.546875q1.453125 1.6875 3.703125 1.6875q2.234375 0 3.6875 -1.703125q1.4687195 -1.703125 1.4687195 -4.53125q0 -2.828125 -1.4530945 -4.546875q-1.453125 -1.734375 -3.734375 -1.734375q-2.1875 0 -3.65625 1.703125q-1.46875 1.6875 -1.46875 4.578125zm19.265594 -14.59375l0 22.84375l-2.71875 0l0 -22.84375l2.71875 0zm7.109375 0l0 13.53125l7.5625 -7.234375l3.640625 0l-6.5625 6.015625l7.046875 10.53125l-3.453125 0l-5.671875 -8.640625l-2.5625 2.375l0 6.265625l-2.71875 0l0 -22.84375l2.71875 0zm16.609375 0l0 3.328125l-2.71875 0l0 -3.328125l2.71875 0zm0 6.296875l0 16.546875l-2.71875 0l0 -16.546875l2.71875 0zm8.015625 -4.953125l0 4.953125l3.296875 0l0 2.40625l-3.296875 0l0 10.359375q0 1.234375 0.8125 1.3125q0.828125 0.0625 1.71875 0.0625l0.765625 0l0 2.40625l-2.25 0q-2.234375 0 -3.0 -0.796875q-0.765625 -0.796875 -0.765625 -2.671875l0 -10.671875l-2.828125 0l0 -2.40625l2.828125 0l0 -4.953125l2.71875 0z" fill-rule="nonzero"/><path fill="#000000" fill-opacity="0.0" d="m-40.150566 -0.0012377952l576.0 0l0 191.71654l-576.0 0z" fill-rule="evenodd"/><path fill="#aa0000" d="m39.84301 53.124527q13.59375 0 22.75 7.0625q9.15625 7.046875 10.953125 19.53125l-10.859375 0q-1.796875 -8.390625 -7.875 -12.890625q-6.078125 -4.515625 -15.078125 -4.515625q-13.0 0 -20.359375 9.1875q-7.359375 9.171875 -7.359375 23.953125q0 15.671875 7.21875 24.96875q7.21875 9.296875 20.609375 9.296875q10.015625 0 16.421875 -6.359375q6.421875 -6.359375 7.203125 -17.265625l10.90625 0q-1.78125 15.890625 -11.046875 24.34375q-9.265625 8.453125 -24.390625 8.453125q-17.578125 0 -27.71875 -11.640625q-10.125 -11.640625 -10.125 -31.015625q0 -19.09375 10.46875 -31.09375q10.46875 -12.015625 28.28125 -12.015625zm72.05107 23.1875q13.4375 0 21.093742 8.671875q7.671875 8.671875 7.671875 22.390625q0 13.828125 -7.84375 22.40625q-7.8281174 8.5625 -20.921867 8.5625q-12.875 0 -20.828125 -8.421875q-7.953125 -8.4375 -7.953125 -22.546875q0 -14.109375 7.78125 -22.578125q7.78125 -8.484375 21.0 -8.484375zm-18.484375 31.0625q0 10.1875 5.203125 16.265625q5.21875 6.078125 13.28125 6.078125q8.0 0 13.234375 -6.09375q5.2343674 -6.109375 5.2343674 -16.25q0 -10.125 -5.2031174 -16.3125q-5.203125 -6.1875 -13.375 -6.1875q-7.84375 0 -13.109375 6.078125q-5.265625 6.0625 -5.265625 16.421875zm87.447136 -31.0625q10.703125 0 15.546875 5.484375q4.84375 5.484375 4.84375 15.671875l0 39.46875l-9.75 0l0 -40.484375q0 -5.03125 -3.21875 -8.296875q-3.21875 -3.28125 -8.921875 -3.28125q-8.234375 0 -12.859375 5.0625q-4.609375 5.0625 -4.609375 13.125l0 33.875l-9.75 0l0 -59.28125l9.1875 0l0 9.40625l0.21875 0q3.25 -5.546875 7.984375 -8.140625q4.734375 -2.609375 11.328125 -2.609375zm40.203827 1.34375l16.625 49.421875l0.21875 0l16.1875 -49.421875l10.1875 0l-21.671875 59.28125l-10.40625 0l-21.999985 -59.28125l10.85936 0z" fill-rule="nonzero"/><path fill="#000000" d="m381.28247 55.093277l0 40.8125l41.546875 -40.8125l14.109375 0l-34.546875 33.03125l35.890625 48.8125l-13.78125 0l-29.546875 -41.375l-13.671875 12.703125l0 28.671875l-10.859375 0l0 -81.84375l10.859375 0zm74.30295 0l0 11.921875l-9.75 0l0 -11.921875l9.75 0zm0 22.5625l0 59.28125l-9.75 0l0 -59.28125l9.75 0zm28.707306 -17.75l0 17.75l11.8125 0l0 8.609375l-11.8125 0l0 37.125q0 4.421875 2.9375 4.671875q2.953125 0.25 6.140625 0.25l2.734375 0l0 8.625l-8.046875 0q-8.015625 0 -10.765625 -2.84375q-2.734375 -2.859375 -2.734375 -9.578125l0 -38.25l-10.140625 0l0 -8.609375l10.140625 0l0 -17.75l9.734375 0z" fill-rule="nonzero"/><path fill="#efefef" d="m279.21097 160.09389l6.641449 -24.854263l0 0c-17.429138 -10.767288 -21.7247 -30.307014 -9.923767 -45.1416c11.800934 -14.834579 35.836243 -20.10913 55.527527 -12.185516c19.691284 7.923622 28.594177 26.452263 20.567932 42.80574c-8.026276 16.35347 -30.35498 25.17981 -51.58484 20.391006z" fill-rule="evenodd"/><path stroke="#aa0000" stroke-width="2.0" stroke-linejoin="round" stroke-linecap="butt" d="m279.21097 160.09389l6.641449 -24.854263l0 0c-17.429138 -10.767288 -21.7247 -30.307014 -9.923767 -45.1416c11.800934 -14.834579 35.836243 -20.10913 55.527527 -12.185516c19.691284 7.923622 28.594177 26.452263 20.567932 42.80574c-8.026276 16.35347 -30.35498 25.17981 -51.58484 20.391006z" fill-rule="evenodd"/><path fill="#aa0000" d="m305.72498 115.12096l0 4.921875l-5.015625 0l0 -4.921875l5.015625 0zm8.890625 0l0 4.921875l-5.015625 0l0 -4.921875l5.015625 0zm8.890625 0l0 4.921875l-5.015625 0l0 -4.921875l5.015625 0z" fill-rule="nonzero"/></g></svg>